<svg width="56" height="42" viewBox="0 0 56 42" fill="none" xmlns="http://www.w3.org/2000/svg">
<path d="M20.4676 18.7945C21.3503 17.0044 22.2357 15.2152 23.1147 13.4233C24.0176 11.5812 24.8902 9.72482 25.8243 7.89888C26.3032 6.96128 26.5014 6.00309 26.4445 4.96609C26.2748 1.89898 23.6689 -0.311135 20.5612 0.0721421C17.9507 0.394525 16.1064 1.85241 14.9017 4.07327C14.1172 5.51862 13.4446 7.02128 12.7289 8.50155C12.0664 9.87257 11.348 11.2185 10.7561 12.6218C10.6846 12.7525 10.6075 12.8815 10.5423 13.0149C8.82651 16.5163 7.10334 20.0142 5.40127 23.521C3.76618 26.8881 2.15587 30.2669 0.528119 33.6375C0.0858561 34.5537 -0.0627883 35.5092 0.0234622 36.5112C0.270285 39.3589 2.76421 41.4517 5.67287 41.1974C8.42462 40.9565 10.3267 39.444 11.4838 37.1023C13.2877 33.4513 15.0558 29.7815 16.8579 26.1296C18.0636 23.6858 19.2647 21.2401 20.4676 18.7954V18.7945Z" fill="white"/>
<path d="M55.0583 33.0877C53.9774 30.9385 52.9332 28.7704 51.8734 26.6114C51.4605 25.7705 51.0449 24.9305 50.631 24.0905C49.941 22.6676 49.2556 21.2419 48.561 19.8207C46.5901 15.7918 44.6146 11.7656 42.6409 7.73855C42.0638 6.56006 41.4729 5.38695 40.9132 4.2004C40.1837 2.65476 39.0735 1.45657 37.5311 0.664938C35.3042 -0.478625 32.757 -0.123109 30.9981 1.54612C29.3373 3.12131 28.928 5.52217 29.9557 7.6087C32.6625 13.108 35.362 18.61 38.0706 24.1075C38.9505 25.8932 39.8488 27.6699 40.7388 29.451C40.7489 29.494 40.7508 29.5415 40.77 29.5809C42.0409 32.2074 43.2786 34.85 44.5972 37.4533C45.4193 39.0768 46.7452 40.2347 48.5051 40.8598C51.466 41.912 54.5499 40.5473 55.484 37.773C56.0272 36.1593 55.8226 34.6056 55.0592 33.0877H55.0583Z" fill="white"/>
<path d="M28.0969 12.0728C28.0492 11.9779 28.0418 11.8301 27.8455 11.8328C27.0261 13.4698 26.1939 15.1113 25.3809 16.7608C24.4753 18.5993 23.5871 20.4458 22.6906 22.2887C22.6594 22.3398 22.6227 22.3881 22.597 22.4419C20.7821 26.1815 18.9626 29.9185 17.1559 33.6626C16.754 34.4963 16.5705 35.3838 16.5935 36.3115C16.6678 39.3356 19.3379 41.5977 22.397 41.2063C24.768 40.9037 26.4297 39.5828 27.6592 37.6592C27.9987 37.1282 28.2208 36.5407 28.4923 35.9775C29.1356 34.6423 29.7678 33.3026 30.4036 31.9647C31.6937 29.477 32.7728 26.8925 34.0335 24.3914C34.1289 24.2015 34.0702 24.0565 33.9876 23.8899C32.0231 19.9515 30.0623 16.0112 28.0978 12.0737L28.0969 12.0728Z" fill="white"/>
</svg>
