<svg width="56" height="42" viewBox="0 0 56 42" fill="none" xmlns="http://www.w3.org/2000/svg">
<path d="M20.4676 19.1693C21.3503 17.3792 22.2357 15.59 23.1147 13.798C24.0176 11.956 24.8902 10.0996 25.8243 8.27366C26.3032 7.33607 26.5014 6.37787 26.4445 5.34088C26.2748 2.27376 23.6689 0.0636513 20.5612 0.446928C17.9507 0.769311 16.1064 2.2272 14.9017 4.44806C14.1172 5.8934 13.4446 7.39607 12.7289 8.87634C12.0664 10.2474 11.348 11.5933 10.7561 12.9966C10.6846 13.1273 10.6075 13.2563 10.5423 13.3897C8.82651 16.8911 7.10334 20.389 5.40127 23.8958C3.76618 27.2629 2.15587 30.6416 0.528119 34.0123C0.0858561 34.9284 -0.0627883 35.8839 0.0234622 36.886C0.270285 39.7337 2.76421 41.8265 5.67287 41.5722C8.42462 41.3313 10.3267 39.8188 11.4838 37.4771C13.2877 33.8261 15.0558 30.1563 16.8579 26.5044C18.0636 24.0606 19.2647 21.6149 20.4676 19.1702V19.1693Z" fill="#404040"/>
<path d="M55.0583 33.4625C53.9774 31.3132 52.9332 29.1452 51.8734 26.9862C51.4605 26.1453 51.0449 25.3053 50.631 24.4653C49.941 23.0423 49.2556 21.6167 48.561 20.1955C46.5901 16.1666 44.6146 12.1404 42.6409 8.11334C42.0638 6.93485 41.4729 5.76174 40.9132 4.57519C40.1837 3.02954 39.0735 1.83135 37.5311 1.03972C35.3042 -0.103839 32.757 0.251678 30.9981 1.9209C29.3373 3.4961 28.928 5.89696 29.9557 7.98349C32.6625 13.4828 35.362 18.9848 38.0706 24.4823C38.9505 26.268 39.8488 28.0446 40.7388 29.8258C40.7489 29.8688 40.7508 29.9163 40.77 29.9557C42.0409 32.5822 43.2786 35.2248 44.5972 37.8281C45.4193 39.4516 46.7452 40.6095 48.5051 41.2346C51.466 42.2868 54.5499 40.922 55.484 38.1478C56.0272 36.5341 55.8226 34.9804 55.0592 33.4625H55.0583Z" fill="#404040"/>
<path d="M28.0969 12.4476C28.0492 12.3527 28.0418 12.2049 27.8455 12.2076C27.0261 13.8446 26.1939 15.486 25.3809 17.1356C24.4753 18.974 23.5871 20.8206 22.6906 22.6635C22.6594 22.7146 22.6227 22.7629 22.597 22.8167C20.7821 26.5563 18.9626 30.2933 17.1559 34.0374C16.754 34.8711 16.5705 35.7585 16.5935 36.6863C16.6678 39.7104 19.3379 41.9725 22.397 41.5811C24.768 41.2784 26.4297 39.9576 27.6592 38.034C27.9987 37.503 28.2208 36.9155 28.4923 36.3523C29.1356 35.0171 29.7678 33.6774 30.4036 32.3395C31.6937 29.8518 32.7728 27.2673 34.0335 24.7662C34.1289 24.5763 34.0702 24.4313 33.9876 24.2647C32.0231 20.3263 30.0623 16.386 28.0978 12.4485L28.0969 12.4476Z" fill="#404040"/>
</svg>
